<svg width="65" height="61" viewBox="0 0 65 61" fill="none" xmlns="http://www.w3.org/2000/svg">
<rect width="65" height="61" fill="#FFFEFE"/>
<rect x="11.5" y="7.5" width="41" height="42" rx="7.5" fill="white" stroke="#395347" stroke-width="5"/>
<path d="M14 30.027V29.9593V29.8917V29.8241V29.7565V29.689V29.6216V29.5542V29.4869V29.4196V29.3523V29.2851V29.218V29.1509V29.0838V29.0168V28.9499V28.883V28.8162V28.7494V28.6827V28.616V28.5494V28.4828V28.4163V28.3498V28.2834V28.217V28.1507V28.0845V28.0183V27.9522V27.8861V27.8201V27.7541V27.6882V27.6223V27.5565V27.4908V27.4251V27.3595V27.294V27.2284V27.163V27.0976V27.0323V26.967V26.9018V26.8367V26.7716V26.7066V26.6416V26.5767V26.5119V26.4471V26.3824V26.3178V26.2532V26.1887V26.1242V26.0598V25.9955V25.9312V25.867V25.8029V25.7388V25.6748V25.6109V25.547V25.4832V25.4195V25.3558V25.2922V25.2287V25.1652V25.1018V25.0385V24.9752V24.912V24.8489V24.7859V24.7229V24.66V24.5971V24.5343V24.4716V24.409V24.3465V24.284V24.2216V24.1592V24.097V24.0348V23.9727V23.9106V23.8486V23.7867V23.7249V23.6632V23.6015V23.5399V23.4784V23.4169V23.3556V23.2943V23.2331V23.1719V23.1109V23.0499V22.989V22.9281V22.8674V22.8067V22.7461V22.6856V22.6252V22.5648V22.5046V22.4444V22.3843V22.3242V22.2643V22.2044V22.1447V22.085V22.0253V21.9658V21.9064V21.847V21.7877V21.7285V21.6694V21.6103V21.5514V21.4925V21.4338V21.3751V21.3165V21.258V21.1995V21.1412V21.0829V21.0247V20.9667V20.9087V20.8508V20.7929V20.7352V20.6776V20.62V20.5626V20.5052V20.4479V20.3907V20.3336V20.2766V20.2197V20.1629V20.1062V20.0495V19.993V19.9365V19.8801V19.8239V19.7677V19.7116V19.6556V19.5997V19.5439V19.4883V19.4326V19.3771V19.3217V19.2664V19.2112V19.1561V19.101V19.0461V18.9913V18.9365V18.8819V18.8274V18.7729V18.7186V18.6643V18.6102V18.5562V18.5022V18.4484V18.3946V18.341V18.2875V18.234V18.1807V18.1275V18.0743V18.0213V17.9684V17.9156V17.8629V17.8103V17.7577V17.7053V17.653V17.6009V17.5488V17.4968V17.4449V17.3931V17.3415V17.2899V17.2385V17.1871V17.1359V17.0848V17.0338V16.9829V16.9321V16.8814V16.8308V16.7803V16.73V16.6797V16.6296V16.5795V16.5296V16.4798V16.4301V16.3805V16.3311V16.2817V16.2325V16.1833V16.1343V16.0854V16.0366V15.9879V15.9394V15.8909V15.8426V15.7944V15.7463V15.6983V15.6504V15.6027V15.555V15.5075V15.4601V15.4128V15.3657V15.3186V15.2717V15.2249V15.1782V15.1316V15.0852V15.0388V14.9926V14.9465V14.9006V14.8547V14.809V14.7634V14.7179V14.6725V14.6273V14.5822V14.5372V14.4923V14.4476V14.4029V14.3584V14.3141V14.2698V14.2257V14.1817V14.1378V14.0941V14.0505V14.007V13.9636V13.9204V13.8772V13.8343V13.7914V13.7487V13.7061V13.6636V13.6213V13.579V13.537V13.495V13.4532V13.4115V13.3699V13.3285V13.2872V13.246V13.205V13.1641V13.1233V13.0827V13.0422V13.0018V12.9616V12.9215V12.8815V12.8417V12.802V12.7624V12.723V12.6837V12.6445V12.6055V12.5666V12.5278V12.4892V12.4508V12.4124V12.3742V12.3362V12.2982V12.2605V12.2228V12.1853V12.1479V12.1107V12.0736V12.0367V11.9999V11.9632V11.9267V11.8903V11.8541V11.818V11.782V11.7462V11.7106V11.675V11.6396V11.6044V11.5693V11.5344V11.4996V11.4649V11.4304V11.396V11.3618V11.3277V11.2938V11.26V11.2264V11.1929V11.1596V11.1264V11.0933V11.0604V11.0277V10.9951V10.9626V10.9303V10.8982V10.8662V10.8343V10.8027V10.7711V10.7397V10.7085V10.6774V10.6464V10.6157V10.585V10.5545V10.5242V10.494V10.464V10.4342V10.4044V10.3749V10.3455V10.3162V10.2872V10.2582V10.2294V10.2008V10.1724V10.144V10.1159V10.0879V10.0601V10.0324V10.0049V9.97751V9.95031V9.92327V9.89639V9.88619C21.106 10.2499 27.431 12.5349 32.0544 15.9655C37.0872 19.7 40 24.6922 40 30.027C40 35.3617 37.0872 40.354 32.0544 44.0884C27.431 47.519 21.106 49.804 14 50.1678V50.1576V50.1307V50.1036V50.0764V50.0491V50.0216V49.9939V49.966V49.9381V49.9099V49.8816V49.8531V49.8245V49.7957V49.7668V49.7377V49.7085V49.6791V49.6495V49.6198V49.5899V49.5599V49.5297V49.4994V49.4689V49.4383V49.4075V49.3766V49.3455V49.3142V49.2828V49.2513V49.2196V49.1878V49.1558V49.1236V49.0913V49.0589V49.0263V48.9935V48.9606V48.9276V48.8944V48.861V48.8276V48.7939V48.7601V48.7262V48.6921V48.6579V48.6236V48.589V48.5544V48.5196V48.4846V48.4495V48.4143V48.3789V48.3434V48.3077V48.2719V48.236V48.1999V48.1636V48.1273V48.0907V48.0541V48.0173V47.9803V47.9432V47.906V47.8686V47.8311V47.7935V47.7557V47.7178V47.6797V47.6415V47.6032V47.5647V47.5261V47.4874V47.4485V47.4094V47.3703V47.331V47.2916V47.252V47.2123V47.1725V47.1325V47.0924V47.0521V47.0118V46.9713V46.9306V46.8899V46.849V46.8079V46.7668V46.7255V46.684V46.6425V46.6008V46.5589V46.517V46.4749V46.4327V46.3903V46.3479V46.3053V46.2625V46.2197V46.1767V46.1336V46.0904V46.047V46.0035V45.9599V45.9161V45.8723V45.8283V45.7841V45.7399V45.6955V45.651V45.6064V45.5616V45.5168V45.4718V45.4267V45.3814V45.3361V45.2906V45.245V45.1992V45.1534V45.1074V45.0613V45.0151V44.9688V44.9223V44.8758V44.8291V44.7823V44.7353V44.6883V44.6411V44.5938V44.5464V44.4989V44.4513V44.4035V44.3557V44.3077V44.2596V44.2114V44.163V44.1146V44.066V44.0173V43.9685V43.9196V43.8706V43.8215V43.7722V43.7229V43.6734V43.6238V43.5741V43.5243V43.4744V43.4244V43.3742V43.324V43.2736V43.2232V43.1726V43.1219V43.0711V43.0202V42.9692V42.918V42.8668V42.8155V42.764V42.7125V42.6608V42.609V42.5572V42.5052V42.4531V42.4009V42.3486V42.2962V42.2437V42.1911V42.1384V42.0856V42.0326V41.9796V41.9265V41.8732V41.8199V41.7665V41.7129V41.6593V41.6056V41.5517V41.4978V41.4437V41.3896V41.3354V41.281V41.2266V41.1721V41.1174V41.0627V41.0078V40.9529V40.8979V40.8428V40.7875V40.7322V40.6768V40.6213V40.5657V40.51V40.4542V40.3983V40.3423V40.2862V40.2301V40.1738V40.1174V40.061V40.0044V39.9478V39.8911V39.8342V39.7773V39.7203V39.6632V39.606V39.5487V39.4914V39.4339V39.3764V39.3187V39.261V39.2032V39.1453V39.0873V39.0292V38.971V38.9128V38.8544V38.796V38.7375V38.6789V38.6202V38.5614V38.5025V38.4436V38.3846V38.3254V38.2662V38.207V38.1476V38.0881V38.0286V37.969L14 37.9093V37.8495V37.7896V37.7297V37.6697V37.6096V37.5494V37.4891V37.4287V37.3683V37.3078V37.2472V37.1865V37.1258V37.065V37.0041V36.9431V36.882V36.8209V36.7597V36.6984V36.637V36.5756V36.514V36.4524V36.3908V36.329V36.2672V36.2053V36.1433V36.0813V36.0192V35.957V35.8947V35.8324V35.77V35.7075V35.6449V35.5823V35.5196V35.4568V35.394V35.3311V35.2681V35.205V35.1419V35.0787V35.0155V34.9521V34.8887V34.8253V34.7617V34.6981V34.6345V34.5707V34.5069V34.4431V34.3791V34.3151V34.2511V34.1869V34.1227V34.0585V33.9941V33.9297V33.8653V33.8008V33.7362V33.6715V33.6068V33.542V33.4772V33.4123V33.3474V33.2823V33.2173V33.1521V33.0869V33.0216V32.9563V32.8909V32.8255V32.76V32.6944V32.6288V32.5631V32.4974V32.4316V32.3658V32.2998V32.2339V32.1679V32.1018V32.0356V31.9695V31.9032V31.8369V31.7706V31.7041V31.6377V31.5712V31.5046V31.438V31.3713V31.3046V31.2378V31.1709V31.104V31.0371V30.9701V30.9031V30.836V30.7688V30.7016V30.6344V30.5671V30.4997V30.4324V30.3649V30.2974V30.2299V30.1623V30.0947V30.027Z" fill="white" stroke="#395347" stroke-width="4"/>
<line x1="5" y1="51.6914" x2="60" y2="51.6914" stroke="#395347" stroke-width="5"/>
<ellipse cx="30.5" cy="31.0136" rx="2.5" ry="2.46575" fill="#395347"/>
<path d="M32.2272 45.2146L32.2539 45.1992L32.2804 45.1838L32.307 45.1685L32.3336 45.1532L32.3601 45.1378L32.3866 45.1225L32.4131 45.1072L32.4396 45.092L32.466 45.0767L32.4925 45.0614L32.5189 45.0462L32.5453 45.0309L32.5716 45.0157L32.598 45.0005L32.6243 44.9853L32.6506 44.9701L32.6769 44.955L32.7032 44.9398L32.7294 44.9246L32.7556 44.9095L32.7818 44.8944L32.808 44.8793L32.8341 44.8642L32.8602 44.8491L32.8864 44.834L32.9124 44.819L32.9385 44.8039L32.9645 44.7889L32.9905 44.7739L33.0165 44.7589L33.0425 44.7439L33.0684 44.7289L33.0943 44.7139L33.1202 44.699L33.1461 44.6841L33.172 44.6691L33.1978 44.6542L33.2236 44.6393L33.2493 44.6244L33.2751 44.6096L33.3008 44.5947L33.3265 44.5799L33.3522 44.5651L33.3778 44.5503L33.4035 44.5355L33.4291 44.5207L33.4546 44.5059L33.4802 44.4912L33.5057 44.4764L33.5312 44.4617L33.5567 44.447L33.5821 44.4323L33.6075 44.4177L33.6329 44.403L33.6583 44.3884L33.6836 44.3737L33.7089 44.3591L33.7342 44.3445L33.7594 44.3299L33.7847 44.3154L33.8099 44.3008L33.8351 44.2863L33.8602 44.2718L33.8853 44.2573L33.9104 44.2428L33.9355 44.2283L33.9605 44.2139L33.9855 44.1994L34.0105 44.185L34.0354 44.1706L34.0604 44.1562L34.0853 44.1418L34.1101 44.1275L34.135 44.1131L34.1598 44.0988L34.1845 44.0845L34.2093 44.0702L34.234 44.056L34.2587 44.0417L34.2834 44.0275L34.308 44.0132L34.3326 43.999L34.3572 43.9849L34.3817 43.9707L34.4062 43.9565L34.4307 43.9424L34.4551 43.9283L34.4796 43.9142L34.5039 43.9001L34.5283 43.886L34.5526 43.872L34.5769 43.858L34.6012 43.844L34.6254 43.83L34.6496 43.816L34.6738 43.8021L34.6979 43.7881L34.722 43.7742L34.7461 43.7603L34.7701 43.7464L34.7941 43.7326L34.8181 43.7187L34.842 43.7049L34.866 43.6911L34.8898 43.6773L34.9137 43.6635L34.9375 43.6498L34.9613 43.6361L34.985 43.6224L35.0087 43.6087L35.0324 43.595L35.056 43.5814L35.0797 43.5677L35.1032 43.5541L35.1268 43.5405L35.1503 43.5269L35.1738 43.5134L35.1972 43.4999L35.2206 43.4863L35.244 43.4729L35.2673 43.4594L35.2906 43.4459L35.3139 43.4325L35.3371 43.4191L35.3603 43.4057L35.3834 43.3923L35.4066 43.379L35.4297 43.3656L35.4527 43.3523L35.4757 43.339L35.4987 43.3258L35.5216 43.3125L35.5446 43.2993L35.5674 43.2861L35.5903 43.2729L35.6131 43.2598L35.6358 43.2466L35.6585 43.2335L35.6812 43.2204L35.7039 43.2073L35.7265 43.1943L35.7491 43.1812L35.7716 43.1682L35.7941 43.1552L35.8166 43.1423L35.839 43.1293L35.8614 43.1164L35.8837 43.1035L35.906 43.0906L35.9283 43.0778L35.9505 43.0649L35.9727 43.0521L35.9949 43.0393L36.017 43.0266L36.039 43.0138L36.0611 43.0011L36.0831 42.9884L36.105 42.9757L36.127 42.9631L36.1488 42.9504L36.1707 42.9378L36.1925 42.9252L36.2142 42.9127L36.2359 42.9001L36.2576 42.8876L36.2793 42.8751L36.3009 42.8627L36.3224 42.8502L36.3439 42.8378L36.3654 42.8254L36.3868 42.813L36.4082 42.8007L36.4296 42.7883L36.4509 42.776L36.4721 42.7638L36.4934 42.7515L36.5145 42.7393L36.5357 42.7271L36.5568 42.7149L36.5778 42.7027L36.5989 42.6906L36.6198 42.6785L36.6408 42.6664L36.6616 42.6544L36.6825 42.6423L36.7033 42.6303L36.724 42.6183L36.7448 42.6064L36.7654 42.5944L36.786 42.5825L36.8066 42.5706L36.8272 42.5588L36.8477 42.547L36.8681 42.5352L36.8885 42.5234L36.9089 42.5116L36.9292 42.4999L36.9495 42.4882L36.9697 42.4765L36.9899 42.4648L37.01 42.4532L37.0301 42.4416L37.0502 42.43L37.0702 42.4185L37.0901 42.407L37.11 42.3955L37.1299 42.384L37.1497 42.3726L37.1695 42.3611L37.1892 42.3498L37.2089 42.3384L37.2286 42.3271L37.2481 42.3157L37.2677 42.3045L37.2872 42.2932L37.3066 42.282L37.326 42.2708L37.3454 42.2596L37.3647 42.2484L37.384 42.2373L37.4032 42.2262L37.4223 42.2152L37.4415 42.2041L37.4605 42.1931L37.4796 42.1821L37.4985 42.1712L37.5175 42.1603L37.5363 42.1494L37.5552 42.1385L37.5739 42.1276L37.5927 42.1168L37.6114 42.106L37.63 42.0953L37.6486 42.0845L37.6671 42.0738L37.6856 42.0632L37.704 42.0525L37.7224 42.0419L37.7408 42.0313L37.7591 42.0208L37.7773 42.0102L37.7955 41.9997L37.8136 41.9893L37.8317 41.9788L37.8497 41.9684L37.8677 41.958L37.8857 41.9477L37.9035 41.9373L37.9214 41.927L37.9392 41.9168L37.9569 41.9065L37.9746 41.8963L37.9922 41.8862L38.0098 41.876L38.0273 41.8659L38.0448 41.8558L38.0622 41.8457L38.0796 41.8357L38.0969 41.8257L38.1142 41.8158L38.1314 41.8058L38.1485 41.7959L38.1656 41.786L38.1827 41.7762L38.1997 41.7664L38.2166 41.7566L38.2335 41.7468L38.2504 41.7371L38.2672 41.7274L38.2839 41.7178L38.3006 41.7081L38.3172 41.6985L38.3338 41.689L38.3503 41.6794L38.3667 41.6699L38.3832 41.6604L38.3995 41.651L38.4158 41.6416L38.4321 41.6322L38.4482 41.6229L38.4644 41.6135L38.4805 41.6043L38.4965 41.595L38.5125 41.5858L38.5284 41.5766L38.5442 41.5674L38.56 41.5583L38.5647 41.5556C39.9792 45.566 38.6409 49.5945 35.7272 51.2767C32.8135 52.959 28.6556 52.1037 25.8898 48.8735L25.8944 48.8708L25.9103 48.8617L25.9261 48.8525L25.942 48.8433L25.958 48.8341L25.974 48.8249L25.9901 48.8156L26.0062 48.8063L26.0224 48.7969L26.0387 48.7875L26.055 48.7781L26.0713 48.7687L26.0877 48.7592L26.1042 48.7497L26.1207 48.7402L26.1373 48.7306L26.1539 48.721L26.1706 48.7114L26.1873 48.7017L26.2041 48.692L26.221 48.6823L26.2379 48.6725L26.2548 48.6628L26.2718 48.6529L26.2889 48.6431L26.306 48.6332L26.3231 48.6233L26.3403 48.6134L26.3576 48.6034L26.3749 48.5934L26.3923 48.5834L26.4097 48.5733L26.4272 48.5632L26.4447 48.5531L26.4623 48.543L26.4799 48.5328L26.4976 48.5226L26.5153 48.5123L26.5331 48.5021L26.5509 48.4918L26.5688 48.4815L26.5868 48.4711L26.6047 48.4607L26.6228 48.4503L26.6409 48.4399L26.659 48.4294L26.6772 48.4189L26.6954 48.4084L26.7137 48.3978L26.7321 48.3872L26.7504 48.3766L26.7689 48.3659L26.7874 48.3553L26.8059 48.3446L26.8245 48.3338L26.8431 48.3231L26.8618 48.3123L26.8805 48.3015L26.8993 48.2906L26.9182 48.2798L26.937 48.2689L26.956 48.2579L26.9749 48.247L26.994 48.236L27.013 48.225L27.0321 48.214L27.0513 48.2029L27.0705 48.1918L27.0898 48.1807L27.1091 48.1695L27.1284 48.1584L27.1478 48.1471L27.1673 48.1359L27.1868 48.1247L27.2063 48.1134L27.2259 48.1021L27.2456 48.0907L27.2652 48.0794L27.285 48.068L27.3048 48.0566L27.3246 48.0451L27.3444 48.0336L27.3644 48.0222L27.3843 48.0106L27.4043 47.9991L27.4244 47.9875L27.4445 47.9759L27.4646 47.9643L27.4848 47.9526L27.505 47.9409L27.5253 47.9292L27.5456 47.9175L27.566 47.9058L27.5864 47.894L27.6068 47.8822L27.6273 47.8703L27.6479 47.8585L27.6684 47.8466L27.6891 47.8347L27.7097 47.8227L27.7304 47.8108L27.7512 47.7988L27.772 47.7868L27.7928 47.7748L27.8137 47.7627L27.8347 47.7506L27.8556 47.7385L27.8766 47.7264L27.8977 47.7142L27.9188 47.702L27.9399 47.6898L27.9611 47.6776L27.9823 47.6654L28.0036 47.6531L28.0249 47.6408L28.0463 47.6284L28.0677 47.6161L28.0891 47.6037L28.1106 47.5913L28.1321 47.5789L28.1536 47.5665L28.1752 47.554L28.1969 47.5415L28.2185 47.529L28.2403 47.5164L28.262 47.5039L28.2838 47.4913L28.3056 47.4787L28.3275 47.4661L28.3494 47.4534L28.3714 47.4407L28.3934 47.428L28.4154 47.4153L28.4375 47.4026L28.4596 47.3898L28.4818 47.377L28.504 47.3642L28.5262 47.3514L28.5485 47.3385L28.5708 47.3256L28.5931 47.3127L28.6155 47.2998L28.6379 47.2868L28.6604 47.2739L28.6829 47.2609L28.7054 47.2479L28.728 47.2348L28.7506 47.2218L28.7733 47.2087L28.7959 47.1956L28.8187 47.1825L28.8414 47.1694L28.8642 47.1562L28.8871 47.143L28.9099 47.1298L28.9328 47.1166L28.9558 47.1033L28.9788 47.0901L29.0018 47.0768L29.0248 47.0635L29.0479 47.0501L29.071 47.0368L29.0942 47.0234L29.1174 47.01L29.1406 46.9966L29.1639 46.9832L29.1872 46.9697L29.2105 46.9563L29.2339 46.9428L29.2573 46.9293L29.2807 46.9157L29.3042 46.9022L29.3277 46.8886L29.3513 46.875L29.3748 46.8614L29.3984 46.8478L29.4221 46.8341L29.4458 46.8204L29.4695 46.8068L29.4932 46.7931L29.517 46.7793L29.5408 46.7656L29.5646 46.7518L29.5885 46.738L29.6124 46.7242L29.6364 46.7104L29.6604 46.6966L29.6844 46.6827L29.7084 46.6688L29.7325 46.6549L29.7566 46.641L29.7807 46.6271L29.8049 46.6131L29.8291 46.5991L29.8533 46.5852L29.8776 46.5711L29.9019 46.5571L29.9262 46.5431L29.9505 46.529L29.9749 46.5149L29.9994 46.5008L30.0238 46.4867L30.0483 46.4726L30.0728 46.4584L30.0973 46.4443L30.1219 46.4301L30.1465 46.4159L30.1711 46.4017L30.1958 46.3874L30.2205 46.3732L30.2452 46.3589L30.2699 46.3446L30.2947 46.3303L30.3195 46.316L30.3444 46.3016L30.3692 46.2873L30.3941 46.2729L30.419 46.2585L30.444 46.2441L30.469 46.2297L30.494 46.2153L30.519 46.2008L30.5441 46.1863L30.5692 46.1719L30.5943 46.1573L30.6194 46.1428L30.6446 46.1283L30.6698 46.1137L30.695 46.0992L30.7203 46.0846L30.7456 46.07L30.7709 46.0554L30.7962 46.0408L30.8216 46.0261L30.847 46.0115L30.8724 45.9968L30.8978 45.9821L30.9233 45.9674L30.9488 45.9527L30.9743 45.9379L30.9999 45.9232L31.0254 45.9084L31.051 45.8936L31.0767 45.8789L31.1023 45.864L31.128 45.8492L31.1537 45.8344L31.1794 45.8195L31.2051 45.8047L31.2309 45.7898L31.2567 45.7749L31.2825 45.76L31.3084 45.7451L31.3342 45.7301L31.3601 45.7152L31.3861 45.7002L31.412 45.6852L31.438 45.6703L31.4639 45.6552L31.49 45.6402L31.516 45.6252L31.5421 45.6102L31.5681 45.5951L31.5942 45.58L31.6204 45.5649L31.6465 45.5498L31.6727 45.5347L31.6989 45.5196L31.7251 45.5045L31.7513 45.4893L31.7776 45.4742L31.8039 45.459L31.8302 45.4438L31.8565 45.4286L31.8828 45.4134L31.9092 45.3982L31.9356 45.3829L31.962 45.3677L31.9884 45.3524L32.0149 45.3372L32.0414 45.3219L32.0679 45.3066L32.0944 45.2913L32.1209 45.276L32.1475 45.2606L32.174 45.2453L32.2006 45.2299L32.2272 45.2146Z" fill="#395347" stroke="#395347" stroke-width="4"/>
<line x1="42" y1="36.5" x2="38" y2="36.5" stroke="#395347" stroke-width="7"/>
<path d="M32.2272 14.5442L32.2006 14.5289L32.174 14.5135L32.1474 14.4982L32.1209 14.4828L32.0944 14.4675L32.0678 14.4522L32.0413 14.4369L32.0149 14.4216L31.9884 14.4064L31.962 14.3911L31.9356 14.3758L31.9092 14.3606L31.8828 14.3454L31.8565 14.3302L31.8302 14.315L31.8039 14.2998L31.7776 14.2846L31.7513 14.2695L31.7251 14.2543L31.6989 14.2392L31.6727 14.2241L31.6465 14.2089L31.6203 14.1938L31.5942 14.1788L31.5681 14.1637L31.542 14.1486L31.516 14.1336L31.4899 14.1186L31.4639 14.1035L31.4379 14.0885L31.412 14.0735L31.386 14.0586L31.3601 14.0436L31.3342 14.0287L31.3084 14.0137L31.2825 13.9988L31.2567 13.9839L31.2309 13.969L31.2051 13.9541L31.1794 13.9393L31.1537 13.9244L31.128 13.9096L31.1023 13.8947L31.0766 13.8799L31.051 13.8651L31.0254 13.8504L30.9998 13.8356L30.9743 13.8209L30.9488 13.8061L30.9233 13.7914L30.8978 13.7767L30.8724 13.762L30.847 13.7473L30.8216 13.7327L30.7962 13.718L30.7709 13.7034L30.7456 13.6888L30.7203 13.6742L30.695 13.6596L30.6698 13.645L30.6446 13.6305L30.6194 13.616L30.5943 13.6014L30.5692 13.5869L30.5441 13.5725L30.519 13.558L30.494 13.5435L30.469 13.5291L30.444 13.5147L30.419 13.5003L30.3941 13.4859L30.3692 13.4715L30.3443 13.4571L30.3195 13.4428L30.2947 13.4285L30.2699 13.4142L30.2452 13.3999L30.2205 13.3856L30.1958 13.3714L30.1711 13.3571L30.1465 13.3429L30.1219 13.3287L30.0973 13.3145L30.0728 13.3004L30.0483 13.2862L30.0238 13.2721L29.9993 13.258L29.9749 13.2439L29.9505 13.2298L29.9262 13.2157L29.9019 13.2017L29.8776 13.1876L29.8533 13.1736L29.8291 13.1596L29.8049 13.1457L29.7807 13.1317L29.7566 13.1178L29.7325 13.1039L29.7084 13.09L29.6843 13.0761L29.6603 13.0622L29.6364 13.0484L29.6124 13.0346L29.5885 13.0208L29.5646 13.007L29.5408 12.9932L29.517 12.9795L29.4932 12.9657L29.4695 12.952L29.4457 12.9383L29.4221 12.9247L29.3984 12.911L29.3748 12.8974L29.3512 12.8838L29.3277 12.8702L29.3042 12.8566L29.2807 12.8431L29.2573 12.8295L29.2339 12.816L29.2105 12.8025L29.1872 12.7891L29.1639 12.7756L29.1406 12.7622L29.1174 12.7488L29.0942 12.7354L29.071 12.722L29.0479 12.7086L29.0248 12.6953L29.0018 12.682L28.9787 12.6687L28.9558 12.6554L28.9328 12.6422L28.9099 12.629L28.887 12.6158L28.8642 12.6026L28.8414 12.5894L28.8187 12.5763L28.7959 12.5632L28.7732 12.5501L28.7506 12.537L28.728 12.5239L28.7054 12.5109L28.6829 12.4979L28.6604 12.4849L28.6379 12.4719L28.6155 12.459L28.5931 12.4461L28.5708 12.4332L28.5485 12.4203L28.5262 12.4074L28.504 12.3946L28.4818 12.3818L28.4596 12.369L28.4375 12.3562L28.4154 12.3435L28.3934 12.3308L28.3714 12.3181L28.3494 12.3054L28.3275 12.2927L28.3056 12.2801L28.2838 12.2675L28.262 12.2549L28.2402 12.2423L28.2185 12.2298L28.1968 12.2173L28.1752 12.2048L28.1536 12.1923L28.1321 12.1799L28.1105 12.1675L28.0891 12.1551L28.0676 12.1427L28.0463 12.1303L28.0249 12.118L28.0036 12.1057L27.9823 12.0934L27.9611 12.0812L27.9399 12.069L27.9188 12.0567L27.8977 12.0446L27.8766 12.0324L27.8556 12.0203L27.8346 12.0082L27.8137 11.9961L27.7928 11.984L27.772 11.972L27.7512 11.96L27.7304 11.948L27.7097 11.936L27.689 11.9241L27.6684 11.9122L27.6478 11.9003L27.6273 11.8885L27.6068 11.8766L27.5864 11.8648L27.5659 11.853L27.5456 11.8413L27.5253 11.8295L27.505 11.8178L27.4848 11.8062L27.4646 11.7945L27.4444 11.7829L27.4243 11.7713L27.4043 11.7597L27.3843 11.7482L27.3643 11.7366L27.3444 11.7251L27.3246 11.7137L27.3047 11.7022L27.285 11.6908L27.2652 11.6794L27.2456 11.6681L27.2259 11.6567L27.2063 11.6454L27.1868 11.6341L27.1673 11.6229L27.1478 11.6116L27.1284 11.6004L27.1091 11.5893L27.0898 11.5781L27.0705 11.567L27.0513 11.5559L27.0321 11.5448L27.013 11.5338L26.9939 11.5228L26.9749 11.5118L26.9559 11.5008L26.937 11.4899L26.9181 11.479L26.8993 11.4682L26.8805 11.4573L26.8618 11.4465L26.8431 11.4357L26.8245 11.4249L26.8059 11.4142L26.7874 11.4035L26.7689 11.3928L26.7504 11.3822L26.732 11.3716L26.7137 11.361L26.6954 11.3504L26.6772 11.3399L26.659 11.3294L26.6409 11.3189L26.6228 11.3085L26.6047 11.2981L26.5867 11.2877L26.5688 11.2773L26.5509 11.267L26.5331 11.2567L26.5153 11.2464L26.4976 11.2362L26.4799 11.226L26.4623 11.2158L26.4447 11.2057L26.4272 11.1956L26.4097 11.1855L26.3923 11.1754L26.3749 11.1654L26.3576 11.1554L26.3403 11.1454L26.3231 11.1355L26.3059 11.1256L26.2888 11.1157L26.2718 11.1059L26.2548 11.096L26.2378 11.0863L26.2209 11.0765L26.2041 11.0668L26.1873 11.0571L26.1706 11.0474L26.1539 11.0378L26.1373 11.0282L26.1207 11.0186L26.1042 11.0091L26.0877 10.9996L26.0713 10.9901L26.055 10.9807L26.0387 10.9713L26.0224 10.9619L26.0062 10.9525L25.9901 10.9432L25.974 10.9339L25.958 10.9247L25.942 10.9155L25.9261 10.9063L25.9102 10.8971L25.8944 10.888L25.8898 10.8853C28.6556 7.65513 32.8135 6.79982 35.7272 8.48205C38.6409 10.1643 39.9792 14.1928 38.5647 18.2031L38.56 18.2005L38.5442 18.1913L38.5284 18.1822L38.5124 18.173L38.4965 18.1638L38.4804 18.1545L38.4644 18.1452L38.4482 18.1359L38.432 18.1266L38.4158 18.1172L38.3995 18.1078L38.3831 18.0983L38.3667 18.0889L38.3503 18.0794L38.3338 18.0698L38.3172 18.0603L38.3006 18.0507L38.2839 18.041L38.2671 18.0314L38.2504 18.0217L38.2335 18.012L38.2166 18.0022L38.1997 17.9924L38.1827 17.9826L38.1656 17.9728L38.1485 17.9629L38.1313 17.953L38.1141 17.943L38.0969 17.9331L38.0796 17.9231L38.0622 17.913L38.0448 17.903L38.0273 17.8929L38.0098 17.8828L37.9922 17.8726L37.9746 17.8625L37.9569 17.8522L37.9391 17.842L37.9214 17.8317L37.9035 17.8214L37.8856 17.8111L37.8677 17.8008L37.8497 17.7904L37.8317 17.78L37.8136 17.7695L37.7955 17.7591L37.7773 17.7486L37.759 17.738L37.7407 17.7275L37.7224 17.7169L37.704 17.7063L37.6856 17.6956L37.6671 17.6849L37.6486 17.6742L37.63 17.6635L37.6113 17.6528L37.5927 17.642L37.5739 17.6311L37.5551 17.6203L37.5363 17.6094L37.5174 17.5985L37.4985 17.5876L37.4795 17.5767L37.4605 17.5657L37.4414 17.5547L37.4223 17.5436L37.4032 17.5326L37.3839 17.5215L37.3647 17.5103L37.3454 17.4992L37.326 17.488L37.3066 17.4768L37.2872 17.4656L37.2677 17.4543L37.2481 17.443L37.2285 17.4317L37.2089 17.4204L37.1892 17.409L37.1695 17.3976L37.1497 17.3862L37.1299 17.3748L37.11 17.3633L37.0901 17.3518L37.0702 17.3403L37.0502 17.3287L37.0301 17.3172L37.01 17.3056L36.9899 17.2939L36.9697 17.2823L36.9495 17.2706L36.9292 17.2589L36.9089 17.2472L36.8885 17.2354L36.8681 17.2236L36.8477 17.2118L36.8272 17.2L36.8066 17.1881L36.786 17.1763L36.7654 17.1643L36.7447 17.1524L36.724 17.1405L36.7033 17.1285L36.6825 17.1165L36.6616 17.1044L36.6407 17.0924L36.6198 17.0803L36.5988 17.0682L36.5778 17.056L36.5568 17.0439L36.5357 17.0317L36.5145 17.0195L36.4934 17.0073L36.4721 16.995L36.4509 16.9827L36.4296 16.9704L36.4082 16.9581L36.3868 16.9458L36.3654 16.9334L36.3439 16.921L36.3224 16.9086L36.3008 16.8961L36.2792 16.8837L36.2576 16.8712L36.2359 16.8587L36.2142 16.8461L36.1925 16.8336L36.1707 16.821L36.1488 16.8084L36.1269 16.7957L36.105 16.7831L36.0831 16.7704L36.0611 16.7577L36.039 16.745L36.017 16.7322L35.9948 16.7195L35.9727 16.7067L35.9505 16.6939L35.9283 16.681L35.906 16.6682L35.8837 16.6553L35.8613 16.6424L35.839 16.6295L35.8165 16.6165L35.7941 16.6035L35.7716 16.5906L35.749 16.5775L35.7265 16.5645L35.7039 16.5515L35.6812 16.5384L35.6585 16.5253L35.6358 16.5122L35.613 16.499L35.5902 16.4859L35.5674 16.4727L35.5445 16.4595L35.5216 16.4463L35.4987 16.433L35.4757 16.4197L35.4527 16.4065L35.4296 16.3931L35.4066 16.3798L35.3834 16.3665L35.3603 16.3531L35.3371 16.3397L35.3138 16.3263L35.2906 16.3129L35.2673 16.2994L35.2439 16.2859L35.2206 16.2724L35.1972 16.2589L35.1737 16.2454L35.1503 16.2318L35.1268 16.2183L35.1032 16.2047L35.0796 16.1911L35.056 16.1774L35.0324 16.1638L35.0087 16.1501L34.985 16.1364L34.9613 16.1227L34.9375 16.109L34.9137 16.0952L34.8898 16.0815L34.8659 16.0677L34.842 16.0539L34.8181 16.0401L34.7941 16.0262L34.7701 16.0124L34.7461 15.9985L34.722 15.9846L34.6979 15.9707L34.6738 15.9567L34.6496 15.9428L34.6254 15.9288L34.6012 15.9148L34.5769 15.9008L34.5526 15.8868L34.5283 15.8727L34.5039 15.8587L34.4795 15.8446L34.4551 15.8305L34.4307 15.8164L34.4062 15.8023L34.3817 15.7881L34.3571 15.7739L34.3326 15.7598L34.308 15.7455L34.2833 15.7313L34.2587 15.7171L34.234 15.7028L34.2093 15.6886L34.1845 15.6743L34.1597 15.66L34.1349 15.6456L34.1101 15.6313L34.0852 15.617L34.0604 15.6026L34.0354 15.5882L34.0105 15.5738L33.9855 15.5594L33.9605 15.5449L33.9355 15.5305L33.9104 15.516L33.8853 15.5015L33.8602 15.487L33.835 15.4725L33.8099 15.458L33.7847 15.4434L33.7594 15.4288L33.7342 15.4143L33.7089 15.3997L33.6836 15.3851L33.6582 15.3704L33.6329 15.3558L33.6075 15.3411L33.5821 15.3265L33.5566 15.3118L33.5312 15.2971L33.5057 15.2823L33.4802 15.2676L33.4546 15.2529L33.429 15.2381L33.4034 15.2233L33.3778 15.2085L33.3522 15.1937L33.3265 15.1789L33.3008 15.1641L33.2751 15.1492L33.2493 15.1343L33.2236 15.1195L33.1978 15.1046L33.1719 15.0897L33.1461 15.0747L33.1202 15.0598L33.0943 15.0449L33.0684 15.0299L33.0425 15.0149L33.0165 14.9999L32.9905 14.9849L32.9645 14.9699L32.9385 14.9549L32.9124 14.9398L32.8863 14.9248L32.8602 14.9097L32.8341 14.8946L32.808 14.8795L32.7818 14.8644L32.7556 14.8493L32.7294 14.8341L32.7031 14.819L32.6769 14.8038L32.6506 14.7887L32.6243 14.7735L32.598 14.7583L32.5716 14.7431L32.5453 14.7278L32.5189 14.7126L32.4925 14.6974L32.466 14.6821L32.4396 14.6668L32.4131 14.6515L32.3866 14.6362L32.3601 14.6209L32.3336 14.6056L32.307 14.5903L32.2804 14.5749L32.2538 14.5596L32.2272 14.5442Z" fill="#395347" stroke="#395347" stroke-width="4"/>
<line x1="40.5" y1="52" x2="40.5" y2="8" stroke="#395347" stroke-width="3"/>
<path d="M42.7574 9.88766C43.0957 9.84503 43.3765 10.1462 43.3104 10.4807L42.9168 12.4716C42.8377 12.8716 42.3388 13.0138 42.0606 12.7156L40.4407 10.9785C40.1626 10.6802 40.3393 10.1924 40.7439 10.1414L42.7574 9.88766Z" fill="white"/>
</svg>
